<?xml version="1.0" encoding="utf-8"?>
<!-- Generator: Adobe Illustrator 27.3.1, SVG Export Plug-In . SVG Version: 6.00 Build 0)  -->
<svg version="1.1" id="Layer_1" xmlns="http://www.w3.org/2000/svg" xmlns:xlink="http://www.w3.org/1999/xlink" x="0px" y="0px"
	 viewBox="0 0 100 100" style="enable-background:new 0 0 100 100;" xml:space="preserve">
<style type="text/css">
	.st0{fill:#FFFFFF;}
	.st1{fill:#AF7C4F;stroke:#010101;stroke-width:2;stroke-linecap:round;stroke-linejoin:round;stroke-miterlimit:10;}
	.st2{fill:#AF7C4F;}
	.st3{fill:#A07B52;}
</style>
<g>
	<rect class="st0" width="100" height="100"/>
	<g>
		<g>
			<path class="st1" d="M50,64.11"/>
			<g>
				<g>
					<path class="st2" d="M63.54,52.9c-9.25,0-19.54-0.25-23.16-0.5c-2.13-0.15-4.54-0.32-6.65-1.35c-3.76-1.84-5.24-8.7-5.3-8.99
						c-0.24-1.73-0.82-5.12-1.49-9.05c-1.11-6.51-2.37-13.88-2.56-16.4c-0.03-0.33-0.07-0.69-0.12-1.05
						c-0.15-1.16-0.31-2.48,0.08-3.6c1.52-4.32,19.68-3.66,21.67-2.96c4.18,1.45,4.96,4.76,5.79,8.26l0.12,0.51
						c0.56,2.32,2.91,17.29,3.56,21.86c0.05,0.33-0.18,0.64-0.52,0.69c-0.34,0.05-0.64-0.19-0.69-0.52
						c-0.71-4.98-3.02-19.61-3.53-21.74l-0.12-0.52c-0.82-3.44-1.46-6.15-5-7.38C43.5,9.4,26.58,9.29,25.5,12.35
						c-0.3,0.85-0.16,1.96-0.02,3.04c0.05,0.38,0.1,0.76,0.12,1.11c0.19,2.46,1.49,10.13,2.55,16.29c0.67,3.94,1.25,7.34,1.49,9.05
						c0.01,0.02,1.41,6.53,4.63,8.1c1.9,0.93,4.09,1.08,6.2,1.23c6.26,0.45,32.55,0.87,38.57,0.01c0.74-0.1,1.57-0.26,2.03-0.76
						c0.49-0.53,0.56-1.41,0.56-2.28c0-1.3-0.09-2.64-0.74-3.67c-1.35-2.13-4.45-2.28-7.29-2.14c-1.43,0.07-8.4,0.14-15.78,0.21
						c-7.04,0.07-14.33,0.14-15.73,0.21c-1.58,0.08-3.22,0.16-4.69-1.25c-0.93-0.89-1.29-2.17-1.58-3.19
						c-0.01-0.02-0.01-0.04-0.01-0.07l-4.27-25.4c-0.06-0.33,0.17-0.65,0.5-0.7c0.34-0.06,0.65,0.17,0.7,0.5L37,38
						c0.26,0.92,0.56,1.96,1.24,2.61c1.01,0.97,2.1,0.99,3.78,0.91c1.43-0.07,8.4-0.14,15.78-0.21c7.04-0.07,14.33-0.14,15.73-0.21
						c3.01-0.15,6.69,0.03,8.39,2.71c0.82,1.29,0.93,2.84,0.93,4.32c0,1.12-0.1,2.28-0.88,3.12c-0.74,0.8-1.81,1.01-2.76,1.14
						C76.63,52.77,70.37,52.9,63.54,52.9z"/>
				</g>
				<g>
					<path class="st2" d="M40.9,20.42c-0.29,0-0.55-0.21-0.6-0.51l-0.34-2.01c-0.06-0.33,0.17-0.65,0.5-0.7
						c0.34-0.06,0.65,0.17,0.7,0.5l0.34,2.01c0.06,0.33-0.17,0.65-0.5,0.7C40.97,20.41,40.93,20.42,40.9,20.42z"/>
				</g>
				<g>
					<path class="st2" d="M46.4,20.42c-0.29,0-0.55-0.21-0.6-0.51l-0.34-2.01c-0.06-0.33,0.17-0.65,0.5-0.7
						c0.34-0.06,0.65,0.17,0.7,0.5l0.34,2.01c0.06,0.33-0.17,0.65-0.5,0.7C46.47,20.41,46.44,20.42,46.4,20.42z"/>
				</g>
				<g>
					<path class="st2" d="M42.39,30.7c-0.29,0-0.55-0.21-0.6-0.51l-0.34-2.01c-0.06-0.33,0.17-0.65,0.5-0.7
						c0.34-0.06,0.65,0.17,0.7,0.5l0.34,2.01c0.06,0.33-0.17,0.65-0.5,0.7C42.46,30.7,42.42,30.7,42.39,30.7z"/>
				</g>
				<g>
					<path class="st2" d="M47.89,30.7c-0.29,0-0.55-0.21-0.6-0.51l-0.34-2.01c-0.06-0.33,0.17-0.65,0.5-0.7
						c0.33-0.06,0.65,0.17,0.7,0.5l0.34,2.01c0.06,0.33-0.17,0.65-0.5,0.7C47.96,30.7,47.92,30.7,47.89,30.7z"/>
				</g>
				<g>
					<path class="st2" d="M52.27,52.8c-0.32,0-0.59-0.25-0.61-0.58c-0.02-0.34,0.24-0.62,0.58-0.64c0.63-0.03,1.62-0.05,2.68-0.06
						c1.42-0.02,3.02-0.05,3.49-0.11c0.74-0.1,1.57-0.26,2.04-0.76c0.49-0.52,0.55-1.4,0.55-2.27c0-1.29-0.09-2.63-0.74-3.65
						c-1.35-2.12-4.44-2.27-7.29-2.13c-0.34,0.01-0.62-0.24-0.64-0.58c-0.02-0.34,0.24-0.62,0.58-0.64
						c3.02-0.15,6.69,0.03,8.39,2.69c0.82,1.29,0.93,2.83,0.93,4.3c0,1.12-0.1,2.27-0.88,3.1c-0.74,0.79-1.81,1-2.76,1.13
						c-0.54,0.08-2.05,0.1-3.64,0.12c-1.04,0.02-2.03,0.03-2.64,0.06C52.29,52.8,52.28,52.8,52.27,52.8z"/>
				</g>
				<path class="st2" d="M81.44,43.88c-8.29,0-15.01,0.15-15.01,0.34c0,0.19,6.72,0.34,15.01,0.34V43.88z"/>
				<path class="st2" d="M82.23,46.22c-8.29,0-15.01,0.15-15.01,0.34c0,0.19,6.72,0.34,15.01,0.34V46.22z"/>
				<path class="st2" d="M82.23,48.56c-8.29,0-15.01,0.15-15.01,0.34c0,0.19,6.72,0.34,15.01,0.34V48.56z"/>
				<g>
					<path class="st2" d="M77.73,42.54c-0.06,0-0.12-0.01-0.19-0.03c-1.23-0.39-2.19-1.46-2.45-2.72c-0.25-1.21,0.15-2.39,0.56-3.39
						l0.2-0.47c0.34-0.79,0.66-1.54,0.73-2.31c0.07-0.75-0.18-1.71-0.89-2.07c-0.24-0.12-0.53-0.18-0.9-0.22
						c-0.86-0.11-1.72-0.06-2.64-0.02c-0.47,0.02-0.95,0.05-1.43,0.05l-1.61,0.01c-0.93,0.01-1.87,0.02-2.8,0.02
						c-4.3-0.01-8.59-0.01-12.89-0.02c-0.34,0-0.61-0.27-0.61-0.61c0-0.34,0.27-0.61,0.61-0.61c0,0,0,0,0,0
						c4.3,0.01,8.59,0.02,12.89,0.02c0.93,0,1.86-0.01,2.78-0.02l1.61-0.01c0.46,0,0.91-0.03,1.37-0.05
						c0.93-0.05,1.89-0.1,2.85,0.02c0.42,0.05,0.88,0.13,1.3,0.34c1.23,0.62,1.67,2.09,1.56,3.28c-0.09,0.97-0.46,1.84-0.82,2.68
						l-0.19,0.46c-0.34,0.83-0.67,1.79-0.49,2.68c0.17,0.82,0.82,1.55,1.62,1.8c0.32,0.1,0.5,0.45,0.4,0.77
						C78.23,42.37,77.99,42.54,77.73,42.54z"/>
				</g>
				<g>
					<path class="st2" d="M74.12,26.97H60.32c-0.18,0-0.35-0.08-0.47-0.22c-0.12-0.14-0.16-0.32-0.13-0.5l2.44-13.1
						c0.05-0.29,0.31-0.5,0.6-0.5h8.92c0.29,0,0.55,0.21,0.6,0.5l2.44,13.1c0.03,0.18-0.01,0.36-0.13,0.5
						C74.48,26.88,74.31,26.97,74.12,26.97z M61.05,25.74h12.33l-2.22-11.88h-7.9L61.05,25.74z"/>
				</g>
				<g>
					<path class="st2" d="M66.43,19.81c0,0.12,2.59,0.22,6.53,0.28l-0.1-0.55C68.97,19.59,66.43,19.69,66.43,19.81z"/>
					<path class="st2" d="M66.43,16.92c0,0.11,2.35,0.21,5.98,0.27l-0.1-0.54C68.74,16.71,66.43,16.81,66.43,16.92z"/>
					<path class="st2" d="M73.49,22.98l-0.11-0.57c-4.18,0.06-6.96,0.16-6.96,0.28C66.43,22.81,69.25,22.92,73.49,22.98z"/>
				</g>
				<g>
					<path class="st2" d="M66.61,31.16v-5.17c0-0.13,0.27-0.24,0.61-0.24c0.34,0,0.61,0.11,0.61,0.24v5.17"/>
				</g>
				<g>
					<path class="st2" d="M34.11,64.72c-0.06,0-0.12-0.01-0.18-0.03c-0.32-0.1-0.5-0.44-0.41-0.76l3.71-12.21
						c0.1-0.32,0.44-0.5,0.76-0.41c0.32,0.1,0.5,0.44,0.41,0.76l-3.71,12.21C34.61,64.55,34.37,64.72,34.11,64.72z"/>
				</g>
				<g>
					<path class="st2" d="M58.28,64.72c-0.26,0-0.51-0.17-0.59-0.44l-3.51-11.73c-0.1-0.32,0.09-0.66,0.41-0.76
						c0.32-0.1,0.66,0.09,0.76,0.41l3.51,11.73c0.1,0.32-0.09,0.66-0.41,0.76C58.4,64.71,58.34,64.72,58.28,64.72z"/>
				</g>
				<g>
					<path class="st2" d="M54.34,64.72c-0.06,0-0.12-0.01-0.18-0.03c-0.32-0.1-0.5-0.45-0.4-0.77l3.71-11.73
						c0.1-0.32,0.44-0.5,0.77-0.4c0.32,0.1,0.5,0.45,0.4,0.77l-3.71,11.73C54.84,64.55,54.6,64.72,54.34,64.72z"/>
				</g>
				<g>
					<path class="st2" d="M78.52,64.72c-0.26,0-0.51-0.17-0.59-0.44l-3.51-11.73c-0.1-0.32,0.09-0.66,0.41-0.76
						c0.32-0.1,0.66,0.09,0.76,0.41l3.51,11.73c0.1,0.32-0.09,0.66-0.41,0.76C78.63,64.71,78.57,64.72,78.52,64.72z"/>
				</g>
				<g>
					<path class="st2" d="M24.64,55.54c-1.86,0-3.69-0.83-5.03-2.28c-1.35-1.47-2.86-4.28-2.37-9.32c0.47-4.86,3.6-10.05,6.31-12.82
						c0.12-0.12,0.29-0.19,0.46-0.18c0.17,0.01,0.33,0.08,0.44,0.21l1.78,2.06c0.22,0.26,0.19,0.64-0.06,0.86
						c-0.25,0.22-0.64,0.19-0.86-0.06l-1.34-1.55c-2.45,2.71-5.09,7.3-5.51,11.6c-0.45,4.59,0.87,7.09,2.05,8.38
						c1.1,1.2,2.6,1.89,4.13,1.89c0.02,0,0.04,0,0.06,0c2.22-0.03,4.23-2.64,4.95-4.48c0.12-0.31,0.48-0.47,0.79-0.35
						c0.31,0.12,0.47,0.48,0.35,0.79c-0.82,2.09-3.11,5.22-6.07,5.26C24.69,55.54,24.67,55.54,24.64,55.54z"/>
				</g>
				<g>
					<path class="st2" d="M24.81,59.14c0,0-0.01,0-0.01,0c-0.34-0.01-0.6-0.29-0.6-0.63c0.06-2.47,0.02-4.97-0.12-7.44
						c-0.02-0.34,0.24-0.63,0.58-0.64c0.34-0.02,0.63,0.24,0.64,0.58c0.14,2.51,0.18,5.04,0.12,7.54
						C25.41,58.88,25.14,59.14,24.81,59.14z"/>
				</g>
				<g>
					<path class="st2" d="M29.44,64.72h-8.18c-0.34,0-0.61-0.27-0.61-0.61c0-0.34,0.27-0.61,0.61-0.61H29l1.43-4.35H19.42
						c-0.34,0-0.61-0.27-0.61-0.61c0-0.34,0.27-0.61,0.61-0.61h11.85c0.2,0,0.38,0.09,0.5,0.25c0.11,0.16,0.15,0.36,0.09,0.55
						l-1.83,5.57C29.94,64.55,29.71,64.72,29.44,64.72z"/>
				</g>
				<g>
					<path class="st2" d="M30.79,60.01c-5.01,0.05-8.47,0.14-8.47,0.25c0,0.11,3.38,0.2,8.3,0.25L30.79,60.01z"/>
					<path class="st2" d="M30.14,61.97c-4.22,0.05-7.03,0.14-7.03,0.24c0,0.1,2.74,0.19,6.88,0.24L30.14,61.97z"/>
				</g>
			</g>
			<g>
			</g>
			<g>
				<path class="st2" d="M88.88,69.16H11.12c-0.13,0-0.23-0.1-0.23-0.23c0-0.13,0.1-0.23,0.23-0.23h77.76c0.13,0,0.23,0.1,0.23,0.23
					C89.11,69.06,89.01,69.16,88.88,69.16z"/>
			</g>
			<g>
				<path class="st2" d="M88.88,83.76H11.12c-0.13,0-0.23-0.1-0.23-0.23c0-0.13,0.1-0.23,0.23-0.23h77.76c0.13,0,0.23,0.1,0.23,0.23
					C89.11,83.65,89.01,83.76,88.88,83.76z"/>
			</g>
			<g>
				<path class="st2" d="M13.62,79.46v-4.69c0-0.57,0.17-1.02,0.52-1.35c0.35-0.33,0.82-0.5,1.42-0.5h1.84v1.58h-1.67
					c-0.32,0-0.47,0.13-0.47,0.41v3.67L13.62,79.46z"/>
				<path class="st2" d="M19.82,78.29l-1.69-1.7l1.69-1.66l1.66,1.66L19.82,78.29z"/>
				<path class="st2" d="M27.26,72.92h1.47v1.39c0,0.5-0.17,0.9-0.51,1.22c-0.34,0.32-0.77,0.48-1.3,0.48c-0.42,0-0.79-0.1-1.12-0.3
					c-0.3,0.2-0.66,0.3-1.07,0.3c-0.13,0-0.26-0.01-0.38-0.03v2.6l-1.63,0.88v-6.54h1.63v1.39c0,0.2,0.12,0.3,0.36,0.3
					c0.24,0,0.36-0.1,0.36-0.3v-1.05h1.47v1.05c0,0.2,0.12,0.3,0.37,0.3c0.23,0,0.35-0.1,0.35-0.3V72.92z"/>
				<path class="st2" d="M31.2,78.29l-1.69-1.7l1.69-1.66l1.66,1.66L31.2,78.29z"/>
				<path class="st2" d="M39.15,79.29c-0.65,0-1.17-0.22-1.54-0.67c-0.33-0.38-0.5-0.88-0.5-1.49V76.1l1.63-0.87v1.82
					c0,0.25,0.05,0.42,0.14,0.52c0.09,0.1,0.26,0.15,0.5,0.15h3.64c0.24,0,0.41-0.05,0.5-0.15s0.14-0.27,0.14-0.52v-1.96l1.63-0.87
					v2.92c0,0.7-0.22,1.24-0.65,1.63c-0.38,0.35-0.88,0.52-1.48,0.52H39.15z M40.21,74.05c-0.26,0-0.46-0.08-0.61-0.24
					c-0.15-0.16-0.23-0.36-0.23-0.62c0-0.25,0.08-0.45,0.23-0.6c0.15-0.15,0.36-0.23,0.61-0.23c0.25,0,0.45,0.08,0.6,0.23
					c0.15,0.15,0.23,0.35,0.23,0.6c0,0.26-0.08,0.47-0.23,0.63C40.66,73.97,40.46,74.05,40.21,74.05z M42.09,74.05
					c-0.26,0-0.46-0.08-0.61-0.24c-0.15-0.16-0.23-0.36-0.23-0.62c0-0.25,0.08-0.45,0.23-0.6c0.15-0.15,0.36-0.23,0.61-0.23
					c0.25,0,0.45,0.08,0.6,0.23s0.23,0.35,0.23,0.6c0,0.26-0.08,0.47-0.23,0.63C42.54,73.97,42.34,74.05,42.09,74.05z"/>
				<path class="st2" d="M49.46,79.29c-0.69,0-1.23-0.22-1.62-0.67c-0.34-0.39-0.51-0.89-0.51-1.5v-4.24l1.63-0.87v5.04
					c0,0.24,0.05,0.41,0.15,0.51c0.1,0.1,0.27,0.15,0.51,0.15h1.1v1.58H49.46z"/>
				<path class="st2" d="M50.12,79.29v-1.58h1.91v1.58H50.12z"/>
				<path class="st2" d="M51.43,79.29v-1.58h1.26c0.24,0,0.41-0.05,0.5-0.14c0.09-0.09,0.14-0.27,0.14-0.51v-1.44l1.63-0.87v2.31
					c0,0.24,0.05,0.41,0.14,0.51s0.26,0.15,0.51,0.15h0.87c0.24,0,0.41-0.05,0.51-0.15s0.15-0.27,0.15-0.51v-1.71l1.63-0.86v2.57
					c0,0.25,0.05,0.42,0.14,0.51c0.09,0.09,0.26,0.14,0.5,0.14h0.89c0.24,0,0.41-0.05,0.5-0.14c0.1-0.09,0.14-0.27,0.14-0.51v-1.97
					l1.64-0.87v2.91c0,0.68-0.21,1.22-0.63,1.62c-0.37,0.35-0.84,0.53-1.42,0.54h-1.27c-0.52,0-0.96-0.14-1.32-0.42
					c-0.33,0.26-0.74,0.39-1.22,0.42h-1.27c-0.52,0-0.96-0.14-1.32-0.42c-0.35,0.28-0.79,0.42-1.31,0.42H51.43z M56.98,73.28
					c-0.25,0-0.45-0.08-0.6-0.24c-0.15-0.16-0.23-0.36-0.23-0.62c0-0.25,0.08-0.45,0.23-0.6c0.15-0.15,0.36-0.23,0.6-0.23
					s0.45,0.08,0.6,0.23c0.15,0.15,0.23,0.36,0.23,0.6c0,0.26-0.08,0.47-0.23,0.63C57.43,73.21,57.23,73.28,56.98,73.28z
					 M57.92,71.46c-0.23,0-0.42-0.07-0.56-0.21c-0.14-0.14-0.21-0.33-0.21-0.56c0-0.5,0.25-0.75,0.77-0.75
					c0.5,0,0.76,0.25,0.76,0.75c0,0.23-0.07,0.42-0.21,0.56C58.33,71.39,58.14,71.46,57.92,71.46z M58.87,73.28
					c-0.25,0-0.45-0.08-0.6-0.24c-0.15-0.16-0.23-0.36-0.23-0.62c0-0.25,0.08-0.45,0.23-0.6c0.15-0.15,0.36-0.23,0.6-0.23
					s0.45,0.08,0.6,0.23c0.15,0.15,0.23,0.36,0.23,0.6c0,0.26-0.08,0.47-0.23,0.63C59.32,73.21,59.12,73.28,58.87,73.28z"/>
				<path class="st2" d="M67.05,78.95c-0.17,0.02-0.35,0.03-0.54,0.03c-0.71,0-1.27-0.26-1.69-0.79c-0.35-0.43-0.53-0.95-0.53-1.56
					c0-0.83,0.23-1.5,0.69-1.98c0.41-0.43,0.95-0.64,1.62-0.64c0.68,0,1.22,0.22,1.61,0.65c0.33,0.38,0.5,0.88,0.5,1.48v2.39
					c0,0.98-0.27,1.74-0.81,2.25c-0.42,0.4-0.96,0.61-1.6,0.63c-0.03,0-0.06,0-0.09,0c-0.51,0-1-0.14-1.48-0.42v-1.43
					c0.44,0.25,0.87,0.38,1.29,0.38c0.07,0,0.13,0,0.18-0.01C66.69,79.89,66.98,79.56,67.05,78.95z M67.07,77.45V76.1
					c0-0.37-0.16-0.55-0.47-0.55c-0.47,0-0.7,0.35-0.7,1.04c0,0.68,0.24,1.01,0.71,1.01C66.82,77.6,66.98,77.55,67.07,77.45z"/>
				<path class="st2" d="M73.49,77.71h1.1v1.58h-1.26c-0.17,0-0.35-0.02-0.54-0.06c-0.17,0.98-0.66,1.66-1.45,2.03
					c-0.32,0.15-0.66,0.23-1.03,0.23c-0.5,0-0.98-0.13-1.45-0.39v-1.42c0.39,0.22,0.77,0.33,1.14,0.33c0.19,0,0.36-0.03,0.52-0.09
					c0.46-0.16,0.69-0.58,0.69-1.26v-3.56l1.63-0.87v0.01l0.01-0.01v3.03C72.88,77.56,73.1,77.71,73.49,77.71z"/>
				<path class="st2" d="M79.52,77.71h1.62v1.58h-2.6c-0.38,0-0.71-0.03-0.97-0.09c-0.27,0.06-0.59,0.09-0.97,0.09h-2.62v-1.58h1.63
					c-0.22-0.41-0.33-0.82-0.33-1.23c0-0.76,0.22-1.37,0.67-1.83c0.41-0.43,0.95-0.64,1.61-0.64c0.75,0,1.34,0.27,1.76,0.82
					c0.35,0.44,0.52,0.99,0.52,1.65C79.85,76.89,79.74,77.3,79.52,77.71z M77.56,73.38c-0.26,0-0.46-0.08-0.61-0.23
					c-0.15-0.15-0.23-0.36-0.23-0.61c0-0.25,0.08-0.46,0.23-0.61c0.15-0.15,0.36-0.23,0.61-0.23c0.25,0,0.45,0.08,0.6,0.23
					s0.23,0.35,0.23,0.61c0,0.26-0.08,0.46-0.23,0.61C78,73.31,77.81,73.38,77.56,73.38z M77.57,77.56c0.2-0.1,0.37-0.27,0.5-0.49
					s0.19-0.45,0.19-0.68c0-0.56-0.23-0.83-0.69-0.83c-0.47,0-0.7,0.28-0.7,0.82c0,0.24,0.06,0.47,0.19,0.69
					S77.36,77.45,77.57,77.56z"/>
				<path class="st2" d="M82.3,76.15c0-0.69,0.21-1.23,0.64-1.62c0.38-0.34,0.86-0.51,1.47-0.51c0.76,0,1.35,0.28,1.77,0.83
					c0.36,0.47,0.54,1.07,0.54,1.8c0,0.83-0.23,1.5-0.69,1.98c-0.4,0.44-0.91,0.65-1.54,0.65c-0.59,0-1.08-0.11-1.44-0.34
					c-0.34,0.23-0.75,0.34-1.24,0.34h-1.26v-1.58h1.11c0.24,0,0.41-0.05,0.51-0.15s0.15-0.27,0.15-0.51V76.15z M83.94,77.27
					c0,0.29,0.16,0.44,0.47,0.44c0.47,0,0.7-0.37,0.7-1.12c0-0.7-0.23-1.05-0.7-1.05c-0.32,0-0.47,0.18-0.47,0.55V77.27z"/>
			</g>
		</g>
		<g>
			<path class="st3" d="M14.26,86.62h2.01v0.3h-1.68v1.28h1.57v0.29h-1.57v1.69h-0.33V86.62z"/>
			<path class="st3" d="M19.7,86.62v2.27c0,0.62,0.24,1.04,0.9,1.04c0.66,0,0.89-0.4,0.89-1.05v-2.26h0.35v2.28
				c0,0.75-0.31,1.33-1.25,1.33c-0.85,0-1.24-0.44-1.24-1.29v-2.32H19.7z"/>
			<path class="st3" d="M25.53,88.5v1.67h-0.34v-3.56h1.19c0.61,0,1.04,0.3,1.04,0.9c0,0.52-0.32,0.75-0.6,0.83
				c0.38,0.11,0.55,0.41,0.55,0.91v0.05c0,0.33,0,0.65,0.05,0.86h-0.34c-0.05-0.14-0.06-0.5-0.06-0.85v-0.06
				c0-0.54-0.19-0.76-0.83-0.76H25.53z M25.53,88.21h0.7c0.51,0,0.84-0.15,0.84-0.68c0-0.4-0.26-0.62-0.73-0.62h-0.81V88.21z"/>
			<path class="st3" d="M30.68,90.18v-3.56h0.46c1.55,2.66,1.75,3,1.82,3.15h0.01c-0.03-0.49-0.04-1.06-0.04-1.64v-1.51h0.33v3.56
				h-0.42c-1.66-2.87-1.77-3.07-1.85-3.22h-0.01c0.03,0.46,0.02,1.05,0.02,1.69v1.53H30.68z"/>
			<path class="st3" d="M37,86.62v3.56h-0.34v-3.56H37z"/>
			<path class="st3" d="M41.04,86.92h-1.07v-0.3h2.49v0.3h-1.07v3.26h-0.34V86.92z"/>
			<path class="st3" d="M45.74,86.62v2.27c0,0.62,0.24,1.04,0.9,1.04c0.66,0,0.89-0.4,0.89-1.05v-2.26h0.35v2.28
				c0,0.75-0.31,1.33-1.25,1.33c-0.85,0-1.24-0.44-1.24-1.29v-2.32H45.74z"/>
			<path class="st3" d="M51.57,88.5v1.67h-0.34v-3.56h1.19c0.61,0,1.04,0.3,1.04,0.9c0,0.52-0.32,0.75-0.6,0.83
				c0.38,0.11,0.55,0.41,0.55,0.91v0.05c0,0.33,0,0.65,0.05,0.86h-0.34c-0.05-0.14-0.06-0.5-0.06-0.85v-0.06
				c0-0.54-0.19-0.76-0.83-0.76H51.57z M51.57,88.21h0.7c0.51,0,0.84-0.15,0.84-0.68c0-0.4-0.26-0.62-0.73-0.62h-0.81V88.21z"/>
			<path class="st3" d="M58.68,88.46h-1.62v1.43h1.78l-0.05,0.3h-2.06v-3.56h2.03v0.3h-1.7v1.24h1.62V88.46z"/>
			<path class="st3" d="M65.49,90.18v-0.03c0-0.33,0.21-0.86,0.95-1.48c0.53-0.44,0.74-0.61,0.74-1.04c0-0.32-0.17-0.66-0.63-0.66
				c-0.45,0-0.65,0.29-0.7,0.73h-0.32c0.04-0.54,0.33-1.02,1.03-1.02c0.66,0,0.96,0.44,0.96,0.93c0,0.53-0.27,0.77-0.86,1.27
				c-0.45,0.38-0.69,0.73-0.77,1h1.75l-0.05,0.29H65.49z"/>
			<path class="st3" d="M72.67,88.38c0,0.91-0.19,1.85-1.07,1.85c-0.92,0-1.08-1-1.08-1.86c0-0.87,0.27-1.69,1.08-1.69
				C72.46,86.68,72.67,87.49,72.67,88.38z M70.87,88.37c0,0.85,0.16,1.57,0.74,1.57c0.6,0,0.73-0.72,0.73-1.56
				c0-0.72-0.16-1.42-0.73-1.42C71,86.96,70.87,87.68,70.87,88.37z"/>
			<path class="st3" d="M75.75,87.57c0.06-0.46,0.35-0.89,1-0.89c0.63,0,0.94,0.38,0.94,0.87c0,0.42-0.26,0.65-0.46,0.73v0.01
				c0.32,0.11,0.61,0.38,0.61,0.87c0,0.55-0.31,1.07-1.11,1.07c-0.72,0-1.01-0.46-1.06-0.92h0.32c0.08,0.35,0.29,0.63,0.75,0.63
				c0.58,0,0.74-0.4,0.74-0.77c0-0.56-0.36-0.73-0.81-0.73h-0.22v-0.27h0.22c0.45,0,0.69-0.19,0.69-0.62c0-0.38-0.25-0.6-0.62-0.6
				c-0.39,0-0.6,0.22-0.68,0.62H75.75z"/>
			<path class="st3" d="M83.01,88.38c0,0.91-0.19,1.85-1.07,1.85c-0.92,0-1.08-1-1.08-1.86c0-0.87,0.27-1.69,1.08-1.69
				C82.8,86.68,83.01,87.49,83.01,88.38z M81.21,88.37c0,0.85,0.16,1.57,0.74,1.57c0.6,0,0.73-0.72,0.73-1.56
				c0-0.72-0.16-1.42-0.73-1.42C81.33,86.96,81.21,87.68,81.21,88.37z"/>
		</g>
	</g>
</g>
</svg>
