<?xml version="1.0" encoding="utf-8"?>
<!-- Generator: Adobe Illustrator 27.3.1, SVG Export Plug-In . SVG Version: 6.00 Build 0)  -->
<svg version="1.1" id="Layer_1" xmlns="http://www.w3.org/2000/svg" xmlns:xlink="http://www.w3.org/1999/xlink" x="0px" y="0px"
	 viewBox="0 0 500 500" style="enable-background:new 0 0 500 500;" xml:space="preserve">
<style type="text/css">
	.st0{fill:#AF7C4F;stroke:#010101;stroke-width:2;stroke-linecap:round;stroke-linejoin:round;stroke-miterlimit:10;}
	.st1{fill:#AF7C4F;}
	.st2{fill:#A07B52;}
</style>
<g>
	<g>
		<path class="st0" d="M259.84,313.05"/>
		<g>
			<g>
				<path class="st1" d="M317.26,265.52c-39.21,0-82.85-1.05-98.22-2.14c-9.02-0.64-19.25-1.37-28.2-5.74
					c-15.96-7.79-22.22-36.9-22.47-38.13c-1.03-7.34-3.48-21.73-6.33-38.39c-4.7-27.6-10.04-58.87-10.85-69.56
					c-0.11-1.42-0.3-2.92-0.49-4.46c-0.62-4.92-1.32-10.51,0.35-15.25c6.47-18.31,83.45-15.51,91.91-12.56
					c17.71,6.17,21.04,20.18,24.56,35.01l0.52,2.18c2.36,9.85,12.33,73.33,15.08,92.68c0.2,1.42-0.78,2.73-2.2,2.93
					c-1.43,0.2-2.73-0.79-2.93-2.2c-3-21.14-12.82-83.17-14.99-92.2l-0.52-2.2c-3.46-14.57-6.19-26.08-21.22-31.32
					c-8.98-3.13-80.74-3.57-85.31,9.39c-1.27,3.59-0.67,8.31-0.1,12.88c0.21,1.62,0.4,3.21,0.52,4.71
					c0.79,10.45,6.34,42.96,10.79,69.08c2.85,16.7,5.31,31.13,6.32,38.37c0.03,0.11,5.96,27.69,19.64,34.37
					c8.05,3.93,17.32,4.59,26.29,5.23c26.57,1.89,138.04,3.67,163.54,0.06c3.14-0.44,6.66-1.1,8.63-3.23
					c2.08-2.24,2.36-5.98,2.35-9.68c-0.01-5.51-0.39-11.21-3.15-15.58c-5.71-9.05-18.85-9.67-30.93-9.07
					c-6.04,0.3-35.6,0.58-66.9,0.88c-29.87,0.29-60.76,0.59-66.7,0.88c-6.72,0.33-13.67,0.67-19.88-5.31
					c-3.93-3.79-5.46-9.2-6.69-13.54c-0.03-0.09-0.05-0.18-0.06-0.28L181.54,95.64c-0.24-1.41,0.72-2.75,2.13-2.98
					c1.43-0.24,2.75,0.72,2.99,2.13l18.06,107.58c1.1,3.9,2.37,8.3,5.26,11.09c4.28,4.13,8.91,4.21,16.03,3.86
					c6.04-0.3,35.6-0.58,66.9-0.88c29.87-0.29,60.76-0.59,66.7-0.88c12.78-0.63,28.38,0.11,35.56,11.48
					c3.46,5.48,3.94,12.05,3.95,18.33c0.01,4.76-0.44,9.66-3.73,13.21c-3.13,3.38-7.68,4.27-11.71,4.84
					C372.74,264.95,346.21,265.52,317.26,265.52z"/>
			</g>
			<g>
				<path class="st1" d="M221.26,127.78c-1.24,0-2.34-0.9-2.55-2.16l-1.43-8.54c-0.24-1.41,0.72-2.75,2.13-2.98
					c1.43-0.24,2.75,0.71,2.99,2.13l1.43,8.54c0.24,1.41-0.72,2.75-2.13,2.98C221.54,127.77,221.4,127.78,221.26,127.78z"/>
			</g>
			<g>
				<path class="st1" d="M244.59,127.78c-1.24,0-2.34-0.9-2.55-2.16l-1.43-8.54c-0.24-1.41,0.72-2.75,2.13-2.98
					c1.42-0.24,2.75,0.71,2.99,2.13l1.43,8.54c0.24,1.41-0.72,2.75-2.13,2.98C244.87,127.77,244.73,127.78,244.59,127.78z"/>
			</g>
			<g>
				<path class="st1" d="M227.56,171.39c-1.24,0-2.34-0.9-2.55-2.16l-1.43-8.54c-0.24-1.41,0.72-2.75,2.13-2.98
					c1.43-0.24,2.75,0.72,2.99,2.13l1.43,8.54c0.24,1.41-0.72,2.75-2.13,2.98C227.85,171.38,227.7,171.39,227.56,171.39z"/>
			</g>
			<g>
				<path class="st1" d="M250.89,171.39c-1.24,0-2.34-0.9-2.55-2.16l-1.43-8.54c-0.24-1.41,0.72-2.75,2.13-2.98
					c1.41-0.24,2.75,0.72,2.98,2.13l1.43,8.54c0.24,1.41-0.72,2.75-2.13,2.98C251.17,171.38,251.03,171.39,250.89,171.39z"/>
			</g>
			<g>
				<path class="st1" d="M269.48,265.08c-1.37,0-2.52-1.08-2.59-2.47c-0.07-1.43,1.04-2.64,2.46-2.71
					c2.67-0.13,6.89-0.19,11.35-0.26c6-0.09,12.81-0.19,14.79-0.47c3.14-0.44,6.66-1.09,8.63-3.21c2.07-2.22,2.35-5.93,2.35-9.61
					c-0.01-5.47-0.39-11.14-3.15-15.48c-5.71-9-18.83-9.61-30.93-9.02c-1.44,0.03-2.64-1.03-2.72-2.46
					c-0.07-1.43,1.03-2.64,2.46-2.72c12.79-0.62,28.38,0.11,35.56,11.42c3.46,5.45,3.95,11.99,3.95,18.25
					c0.01,4.74-0.44,9.62-3.74,13.15c-3.13,3.36-7.68,4.24-11.7,4.81c-2.3,0.32-8.68,0.42-15.43,0.52
					c-4.42,0.07-8.6,0.13-11.18,0.26C269.56,265.08,269.52,265.08,269.48,265.08z"/>
			</g>
			<path class="st1" d="M393.17,227.29c-35.16,0-63.66,0.64-63.66,1.43c0,0.79,28.5,1.43,63.66,1.43V227.29z"/>
			<path class="st1" d="M396.53,237.2c-35.16,0-63.66,0.64-63.66,1.43c0,0.79,28.5,1.43,63.66,1.43V237.2z"/>
			<path class="st1" d="M396.53,247.1c-35.16,0-63.66,0.64-63.66,1.43c0,0.79,28.5,1.43,63.66,1.43V247.1z"/>
			<g>
				<path class="st1" d="M377.42,221.59c-0.26,0-0.52-0.04-0.78-0.12c-5.21-1.66-9.28-6.19-10.37-11.55
					c-1.04-5.12,0.62-10.15,2.39-14.38l0.84-1.99c1.44-3.35,2.79-6.51,3.1-9.8c0.29-3.17-0.77-7.27-3.79-8.78
					c-1.02-0.51-2.26-0.75-3.82-0.94c-3.65-0.46-7.31-0.27-11.18-0.07c-2.01,0.1-4.03,0.2-6.05,0.22l-6.81,0.06
					c-3.96,0.04-7.92,0.07-11.86,0.07c-18.22-0.02-36.44-0.05-54.65-0.09c-1.43,0-2.59-1.17-2.59-2.6c0-1.43,1.16-2.59,2.59-2.59
					c0,0,0,0,0.01,0c18.21,0.03,36.43,0.06,54.65,0.09c3.93-0.02,7.87-0.03,11.81-0.07l6.83-0.06c1.94-0.01,3.88-0.11,5.81-0.21
					c3.93-0.2,7.99-0.41,12.09,0.1c1.8,0.22,3.71,0.55,5.5,1.45c5.23,2.62,7.1,8.86,6.63,13.9c-0.38,4.11-1.97,7.8-3.5,11.37
					l-0.82,1.93c-1.46,3.51-2.85,7.61-2.09,11.36c0.71,3.49,3.47,6.56,6.86,7.64c1.36,0.43,2.12,1.89,1.69,3.25
					C379.54,220.89,378.52,221.59,377.42,221.59z"/>
			</g>
			<g>
				<path class="st1" d="M362.14,155.55h-58.54c-0.77,0-1.5-0.34-1.99-0.93c-0.49-0.59-0.69-1.37-0.55-2.13l10.36-55.54
					c0.23-1.23,1.3-2.12,2.55-2.12h37.81c1.25,0,2.32,0.89,2.55,2.12l10.36,55.54c0.14,0.76-0.06,1.54-0.55,2.13
					C363.64,155.21,362.91,155.55,362.14,155.55z M306.71,150.37h52.3l-9.4-50.36h-33.51L306.71,150.37z"/>
			</g>
			<g>
				<path class="st1" d="M329.51,125.19c0,0.49,10.96,0.92,27.67,1.18l-0.44-2.35C340.28,124.27,329.51,124.7,329.51,125.19z"/>
				<path class="st1" d="M329.51,112.94c0,0.47,9.97,0.88,25.38,1.14l-0.42-2.28C339.29,112.07,329.51,112.48,329.51,112.94z"/>
				<path class="st1" d="M359.47,138.65l-0.45-2.42c-17.74,0.25-29.51,0.7-29.51,1.21C329.51,137.95,341.48,138.4,359.47,138.65z"/>
			</g>
			<g>
				<path class="st1" d="M330.28,173.32v-21.93c0-0.56,1.16-1.02,2.59-1.02c1.43,0,2.59,0.46,2.59,1.02v21.93"/>
			</g>
			<g>
				<path class="st1" d="M192.45,315.64c-0.25,0-0.5-0.04-0.75-0.11c-1.37-0.42-2.14-1.86-1.73-3.23l15.72-51.78
					c0.42-1.37,1.84-2.14,3.23-1.73c1.37,0.42,2.14,1.86,1.73,3.23l-15.72,51.78C194.59,314.92,193.57,315.64,192.45,315.64z"/>
			</g>
			<g>
				<path class="st1" d="M294.96,315.64c-1.12,0-2.15-0.73-2.48-1.85l-14.9-49.75c-0.41-1.37,0.37-2.82,1.74-3.23
					c1.37-0.42,2.82,0.37,3.23,1.74l14.9,49.75c0.41,1.37-0.37,2.82-1.74,3.23C295.45,315.61,295.2,315.64,294.96,315.64z"/>
			</g>
			<g>
				<path class="st1" d="M278.25,315.64c-0.26,0-0.52-0.04-0.78-0.12c-1.36-0.43-2.12-1.89-1.69-3.25l15.72-49.75
					c0.43-1.36,1.88-2.12,3.25-1.69c1.36,0.43,2.12,1.89,1.69,3.25l-15.72,49.75C280.37,314.94,279.35,315.64,278.25,315.64z"/>
			</g>
			<g>
				<path class="st1" d="M380.76,315.64c-1.12,0-2.15-0.73-2.48-1.85l-14.9-49.75c-0.41-1.37,0.37-2.82,1.74-3.23
					c1.37-0.42,2.82,0.37,3.23,1.74l14.9,49.75c0.41,1.37-0.37,2.82-1.74,3.23C381.25,315.61,381,315.64,380.76,315.64z"/>
			</g>
			<g>
				<path class="st1" d="M152.31,276.7c-7.9,0-15.65-3.51-21.31-9.67c-5.73-6.23-12.12-18.15-10.05-39.53
					c1.99-20.61,15.26-42.62,26.75-54.36c0.51-0.52,1.23-0.81,1.93-0.78c0.72,0.02,1.41,0.35,1.88,0.9l7.56,8.75
					c0.94,1.08,0.81,2.72-0.27,3.66c-1.08,0.93-2.72,0.82-3.65-0.27l-5.68-6.58c-10.38,11.49-21.6,30.96-23.36,49.17
					c-1.89,19.48,3.69,30.07,8.7,35.52c4.68,5.09,11.04,8,17.49,8c0.09,0,0.17,0,0.26,0c9.41-0.11,17.93-11.18,20.98-19
					c0.52-1.33,2.03-1.99,3.36-1.47c1.33,0.52,1.99,2.02,1.47,3.36c-3.46,8.88-13.18,22.14-25.75,22.3
					C152.53,276.7,152.42,276.7,152.31,276.7z"/>
			</g>
			<g>
				<path class="st1" d="M153.01,292c-0.02,0-0.04,0-0.06,0c-1.43-0.04-2.56-1.22-2.53-2.65c0.26-10.46,0.09-21.08-0.51-31.56
					c-0.08-1.43,1.01-2.65,2.44-2.73c1.42-0.07,2.65,1.01,2.73,2.44c0.6,10.62,0.78,21.38,0.52,31.99
					C155.57,290.89,154.42,292,153.01,292z"/>
			</g>
			<g>
				<path class="st1" d="M172.66,315.64h-34.71c-1.43,0-2.59-1.16-2.59-2.59c0-1.43,1.16-2.59,2.59-2.59h32.83l6.07-18.45h-46.67
					c-1.43,0-2.59-1.16-2.59-2.59c0-1.43,1.16-2.59,2.59-2.59h50.25c0.83,0,1.61,0.4,2.1,1.07c0.49,0.67,0.62,1.54,0.36,2.33
					l-7.77,23.64C174.77,314.92,173.78,315.64,172.66,315.64z"/>
			</g>
			<g>
				<path class="st1" d="M178.37,295.68c-21.26,0.19-35.91,0.6-35.91,1.07c0,0.47,14.34,0.87,35.21,1.06L178.37,295.68z"/>
				<path class="st1" d="M175.64,303.99c-17.91,0.21-29.82,0.58-29.82,1.01c0,0.42,11.62,0.79,29.16,1L175.64,303.99z"/>
			</g>
		</g>
		<g>
		</g>
		<g>
			<path class="st1" d="M424.71,334.48H94.96c-0.54,0-0.97-0.44-0.97-0.97c0-0.54,0.44-0.97,0.97-0.97h329.75
				c0.54,0,0.97,0.44,0.97,0.97C425.69,334.04,425.25,334.48,424.71,334.48z"/>
		</g>
		<g>
			<path class="st1" d="M424.71,396.36H94.96c-0.54,0-0.97-0.44-0.97-0.97c0-0.54,0.44-0.97,0.97-0.97h329.75
				c0.54,0,0.97,0.44,0.97,0.97C425.69,395.93,425.25,396.36,424.71,396.36z"/>
		</g>
		<g>
			<path class="st1" d="M105.55,378.16v-19.89c0-2.42,0.73-4.33,2.2-5.74c1.47-1.4,3.47-2.1,6.02-2.1h7.79v6.69h-7.07
				c-1.34,0-2.01,0.57-2.01,1.72v15.58L105.55,378.16z"/>
			<path class="st1" d="M131.84,373.18l-7.17-7.22l7.17-7.03l7.03,7.03L131.84,373.18z"/>
			<path class="st1" d="M163.39,350.43h6.21v5.88c0,2.1-0.72,3.83-2.15,5.19s-3.27,2.03-5.5,2.03c-1.79,0-3.36-0.43-4.73-1.29
				c-1.27,0.86-2.79,1.29-4.54,1.29c-0.54,0-1.08-0.05-1.62-0.14v11.04l-6.93,3.73v-27.73h6.93v5.88c0,0.86,0.51,1.29,1.53,1.29
				c1.02,0,1.53-0.43,1.53-1.29v-4.45h6.21v4.45c0,0.86,0.53,1.29,1.58,1.29c0.99,0,1.48-0.43,1.48-1.29V350.43z"/>
			<path class="st1" d="M180.12,373.18l-7.17-7.22l7.17-7.03l7.03,7.03L180.12,373.18z"/>
			<path class="st1" d="M213.83,377.44c-2.77,0-4.96-0.94-6.55-2.82c-1.4-1.62-2.1-3.73-2.1-6.31v-4.4l6.93-3.68v7.7
				c0,1.05,0.2,1.79,0.6,2.2s1.11,0.62,2.13,0.62h15.44c1.02,0,1.73-0.21,2.13-0.62c0.4-0.41,0.6-1.15,0.6-2.2v-8.32l6.93-3.68
				v12.38c0,2.96-0.92,5.28-2.77,6.93c-1.63,1.47-3.71,2.2-6.26,2.2H213.83z M218.32,355.21c-1.08,0-1.95-0.33-2.61-1
				c-0.65-0.67-0.98-1.54-0.98-2.63c0-1.05,0.33-1.9,0.98-2.53c0.65-0.64,1.52-0.96,2.61-0.96c1.05,0,1.9,0.32,2.53,0.96
				c0.64,0.64,0.96,1.48,0.96,2.53c0,1.12-0.32,2-0.96,2.65C220.22,354.88,219.37,355.21,218.32,355.21z M226.3,355.21
				c-1.08,0-1.95-0.33-2.6-1c-0.65-0.67-0.98-1.54-0.98-2.63c0-1.05,0.33-1.9,0.98-2.53c0.65-0.64,1.52-0.96,2.6-0.96
				c1.05,0,1.9,0.32,2.53,0.96c0.64,0.64,0.96,1.48,0.96,2.53c0,1.12-0.32,2-0.96,2.65C228.2,354.88,227.35,355.21,226.3,355.21z"/>
			<path class="st1" d="M257.57,377.44c-2.93,0-5.23-0.94-6.88-2.82c-1.43-1.66-2.15-3.78-2.15-6.36v-17.97l6.93-3.68v21.37
				c0,1.02,0.21,1.74,0.62,2.15c0.41,0.41,1.13,0.62,2.15,0.62h4.69v6.69H257.57z"/>
			<path class="st1" d="M260.34,377.44v-6.69h8.08v6.69H260.34z"/>
			<path class="st1" d="M265.88,377.44v-6.69h5.35c1.02,0,1.73-0.2,2.13-0.6s0.6-1.12,0.6-2.17v-6.12l6.93-3.68v9.8
				c0,1.02,0.2,1.74,0.6,2.15c0.4,0.41,1.12,0.62,2.17,0.62h3.68c1.02,0,1.74-0.21,2.15-0.62c0.41-0.41,0.62-1.13,0.62-2.15v-7.27
				l6.93-3.63v10.9c0,1.05,0.2,1.78,0.6,2.17c0.4,0.4,1.11,0.6,2.13,0.6h3.78c1.02,0,1.73-0.2,2.13-0.6c0.4-0.4,0.6-1.12,0.6-2.17
				v-8.37l6.98-3.68v12.33c0,2.9-0.89,5.19-2.68,6.88c-1.56,1.47-3.57,2.23-6.02,2.29h-5.4c-2.2,0-4.06-0.59-5.59-1.77
				c-1.4,1.08-3.12,1.67-5.16,1.77H283c-2.2,0-4.06-0.59-5.59-1.77c-1.5,1.18-3.35,1.77-5.54,1.77H265.88z M289.45,351.96
				c-1.05,0-1.9-0.33-2.56-1c-0.65-0.67-0.98-1.54-0.98-2.63c0-1.05,0.33-1.9,0.98-2.56c0.65-0.65,1.51-0.98,2.56-0.98
				s1.9,0.33,2.56,0.98c0.65,0.65,0.98,1.51,0.98,2.56c0,1.12-0.33,2-0.98,2.65C291.36,351.63,290.5,351.96,289.45,351.96z
				 M293.42,344.21c-0.99,0-1.78-0.29-2.37-0.88c-0.59-0.59-0.88-1.38-0.88-2.37c0-2.13,1.08-3.2,3.25-3.2c2.13,0,3.2,1.07,3.2,3.2
				c0,0.99-0.29,1.78-0.88,2.37C295.15,343.92,294.38,344.21,293.42,344.21z M297.43,351.96c-1.05,0-1.91-0.33-2.56-1
				c-0.65-0.67-0.98-1.54-0.98-2.63c0-1.05,0.33-1.9,0.98-2.56c0.65-0.65,1.51-0.98,2.56-0.98s1.9,0.33,2.56,0.98
				c0.65,0.65,0.98,1.51,0.98,2.56c0,1.12-0.33,2-0.98,2.65C299.34,351.63,298.49,351.96,297.43,351.96z"/>
			<path class="st1" d="M332.14,376c-0.7,0.1-1.47,0.14-2.29,0.14c-3,0-5.39-1.12-7.17-3.35c-1.5-1.82-2.25-4.02-2.25-6.6
				c0-3.54,0.97-6.34,2.92-8.41c1.75-1.82,4.05-2.72,6.88-2.72c2.9,0,5.18,0.92,6.84,2.77c1.4,1.63,2.1,3.71,2.1,6.26v10.13
				c0,4.17-1.15,7.36-3.44,9.56c-1.79,1.69-4.05,2.58-6.79,2.68c-0.13,0-0.25,0-0.38,0c-2.17,0-4.25-0.59-6.26-1.77v-6.07
				c1.88,1.08,3.7,1.62,5.45,1.62c0.29,0,0.54-0.02,0.77-0.05C330.61,379.99,331.82,378.59,332.14,376z M332.24,369.65v-5.74
				c0-1.56-0.67-2.34-2.01-2.34c-1.98,0-2.96,1.47-2.96,4.4c0,2.87,1,4.3,3.01,4.3C331.17,370.27,331.82,370.06,332.24,369.65z"/>
			<path class="st1" d="M359.44,370.75h4.68v6.69h-5.35c-0.73,0-1.5-0.08-2.29-0.24c-0.73,4.17-2.79,7.04-6.17,8.6
				c-1.34,0.64-2.79,0.96-4.35,0.96c-2.1,0-4.16-0.56-6.17-1.67v-6.02c1.66,0.92,3.27,1.39,4.83,1.39c0.8,0,1.53-0.13,2.2-0.38
				c1.94-0.67,2.92-2.45,2.92-5.35v-15.11l6.93-3.68v0.05l0.05-0.05v12.86C356.87,370.09,357.78,370.75,359.44,370.75z"/>
			<path class="st1" d="M385.01,370.75h6.88v6.69h-11.04c-1.62,0-3-0.13-4.11-0.38c-1.15,0.26-2.52,0.38-4.11,0.38h-11.09v-6.69
				h6.93c-0.92-1.75-1.39-3.49-1.39-5.21c0-3.22,0.94-5.8,2.82-7.74c1.75-1.82,4.03-2.72,6.84-2.72c3.19,0,5.67,1.16,7.46,3.49
				c1.47,1.88,2.2,4.21,2.2,6.98C386.4,367.26,385.93,368.99,385.01,370.75z M376.69,352.39c-1.08,0-1.95-0.33-2.61-0.98
				c-0.65-0.65-0.98-1.52-0.98-2.6s0.33-1.94,0.98-2.58c0.65-0.64,1.52-0.96,2.61-0.96c1.05,0,1.9,0.32,2.53,0.96
				c0.64,0.64,0.96,1.5,0.96,2.58s-0.32,1.95-0.96,2.6C378.59,352.06,377.74,352.39,376.69,352.39z M376.74,370.08
				c0.86-0.45,1.56-1.14,2.1-2.08c0.54-0.94,0.81-1.9,0.81-2.89c0-2.36-0.97-3.54-2.92-3.54c-1.98,0-2.96,1.16-2.96,3.49
				c0,1.02,0.27,2,0.81,2.94C375.13,368.94,375.85,369.63,376.74,370.08z"/>
			<path class="st1" d="M396.82,364.1c0-2.93,0.91-5.23,2.72-6.88c1.59-1.43,3.66-2.15,6.21-2.15c3.22,0,5.72,1.18,7.51,3.54
				c1.53,2.01,2.29,4.56,2.29,7.65c0,3.54-0.97,6.34-2.92,8.41c-1.69,1.85-3.87,2.77-6.55,2.77c-2.52,0-4.56-0.48-6.12-1.43
				c-1.43,0.96-3.19,1.43-5.26,1.43h-5.35v-6.69h4.68c1.02,0,1.74-0.21,2.15-0.62s0.62-1.13,0.62-2.15V364.1z M403.75,368.88
				c0,1.24,0.67,1.86,2.01,1.86c1.98,0,2.96-1.58,2.96-4.73c0-2.96-0.99-4.45-2.96-4.45c-1.34,0-2.01,0.78-2.01,2.34V368.88z"/>
		</g>
	</g>
	<g>
		<path class="st2" d="M108.28,408.52h8.53v1.26h-7.11v5.43h6.66v1.25h-6.66v7.14h-1.42V408.52z"/>
		<path class="st2" d="M131.34,408.52v9.6c0,2.64,1.03,4.42,3.82,4.42c2.78,0,3.75-1.69,3.75-4.43v-9.58h1.48v9.67
			c0,3.19-1.31,5.63-5.28,5.63c-3.59,0-5.23-1.88-5.23-5.48v-9.81H131.34z"/>
		<path class="st2" d="M156.07,416.51v7.09h-1.43v-15.08h5.04c2.6,0,4.41,1.29,4.41,3.82c0,2.22-1.37,3.18-2.52,3.52
			c1.6,0.48,2.33,1.74,2.33,3.86v0.23c0,1.42,0.01,2.75,0.21,3.65h-1.44c-0.2-0.59-0.25-2.13-0.25-3.6v-0.27
			c0-2.29-0.83-3.22-3.5-3.22H156.07z M156.07,415.29h2.96c2.15,0,3.56-0.62,3.56-2.9c0-1.69-1.11-2.64-3.11-2.64h-3.41V415.29z"/>
		<path class="st2" d="M177.92,423.6v-15.08h1.95c6.58,11.25,7.42,12.68,7.71,13.33h0.02c-0.13-2.09-0.16-4.51-0.16-6.94v-6.38h1.4
			v15.08h-1.76c-7.03-12.13-7.48-12.99-7.84-13.64h-0.02c0.11,1.96,0.08,4.46,0.08,7.17v6.47H177.92z"/>
		<path class="st2" d="M204.69,408.52v15.08h-1.43v-15.08H204.69z"/>
		<path class="st2" d="M221.86,409.8h-4.53v-1.28h10.53v1.28h-4.55v13.8h-1.45V409.8z"/>
		<path class="st2" d="M241.77,408.52v9.6c0,2.64,1.03,4.42,3.82,4.42c2.78,0,3.75-1.69,3.75-4.43v-9.58h1.48v9.67
			c0,3.19-1.31,5.63-5.28,5.63c-3.59,0-5.23-1.88-5.23-5.48v-9.81H241.77z"/>
		<path class="st2" d="M266.5,416.51v7.09h-1.43v-15.08h5.04c2.6,0,4.41,1.29,4.41,3.82c0,2.22-1.37,3.18-2.52,3.52
			c1.61,0.48,2.33,1.74,2.33,3.86v0.23c0,1.42,0.01,2.75,0.21,3.65h-1.44c-0.2-0.59-0.25-2.13-0.25-3.6v-0.27
			c0-2.29-0.83-3.22-3.5-3.22H266.5z M266.5,415.29h2.96c2.15,0,3.56-0.62,3.56-2.9c0-1.69-1.11-2.64-3.11-2.64h-3.41V415.29z"/>
		<path class="st2" d="M296.62,416.3h-6.86v6.04h7.54l-0.21,1.26h-8.74v-15.08h8.61v1.26h-7.2v5.25h6.86V416.3z"/>
		<path class="st2" d="M325.51,423.6v-0.11c0-1.41,0.9-3.66,4.04-6.28c2.23-1.88,3.12-2.57,3.12-4.42c0-1.37-0.74-2.79-2.69-2.79
			c-1.92,0-2.74,1.21-2.98,3.08h-1.33c0.16-2.28,1.38-4.3,4.36-4.3c2.79,0,4.07,1.85,4.07,3.95c0,2.23-1.15,3.27-3.66,5.38
			c-1.89,1.59-2.91,3.07-3.28,4.23h7.4l-0.21,1.25H325.51z"/>
		<path class="st2" d="M355.97,415.97c0,3.87-0.8,7.85-4.52,7.85c-3.88,0-4.56-4.22-4.56-7.86c0-3.7,1.15-7.17,4.57-7.17
			C355.06,408.78,355.97,412.22,355.97,415.97z M348.34,415.94c0,3.58,0.68,6.66,3.14,6.66c2.55,0,3.08-3.06,3.08-6.61
			c0-3.05-0.67-6.02-3.07-6.02C348.87,409.98,348.34,413.03,348.34,415.94z"/>
		<path class="st2" d="M369.02,412.57c0.27-1.96,1.47-3.79,4.23-3.79c2.68,0,3.97,1.62,3.97,3.67c0,1.76-1.08,2.74-1.97,3.09v0.04
			c1.35,0.45,2.57,1.6,2.57,3.68c0,2.31-1.31,4.53-4.69,4.53c-3.03,0-4.28-1.94-4.47-3.88h1.36c0.32,1.47,1.25,2.68,3.18,2.68
			c2.48,0,3.16-1.71,3.16-3.27c0-2.35-1.53-3.08-3.45-3.08h-0.93v-1.15h0.91c1.89,0,2.91-0.82,2.91-2.62c0-1.62-1.04-2.52-2.62-2.52
			c-1.65,0-2.55,0.94-2.88,2.61H369.02z"/>
		<path class="st2" d="M399.81,415.97c0,3.87-0.8,7.85-4.52,7.85c-3.88,0-4.56-4.22-4.56-7.86c0-3.7,1.15-7.17,4.57-7.17
			C398.9,408.78,399.81,412.22,399.81,415.97z M392.18,415.94c0,3.58,0.68,6.66,3.14,6.66c2.55,0,3.08-3.06,3.08-6.61
			c0-3.05-0.67-6.02-3.07-6.02C392.71,409.98,392.18,413.03,392.18,415.94z"/>
	</g>
</g>
</svg>
