<?xml version="1.0" encoding="UTF-8"?>
<svg id="Layer_1" data-name="Layer 1" xmlns="http://www.w3.org/2000/svg" viewBox="0 0 712.27 756.21">
  <defs>
    <style>
      .cls-1 {
        fill: #a07b52;
        font-family: AcuminConcept-SemiCondensedLight, 'Acumin Variable Concept';
        font-size: 46.76px;
        font-variation-settings: 'wght' 300, 'wdth' 90, 'slnt' 0;
        font-weight: 300;
      }

      .cls-2, .cls-3 {
        fill: #af7c4f;
      }

      .cls-3 {
        font-family: Tajawal-ExtraBold, Tajawal;
        font-size: 102.65px;
        font-weight: 700;
      }
    </style>
  </defs>
  <g>
    <g>
      <path class="cls-2" d="m479.45,404.51c-84.2,0-177.92-2.25-210.91-4.59-19.37-1.38-41.34-2.94-60.55-12.33-34.28-16.73-47.7-79.24-48.26-81.89-2.22-15.76-7.48-46.66-13.58-82.43-10.1-59.26-21.55-126.42-23.3-149.36-.23-3.04-.64-6.27-1.06-9.57-1.33-10.57-2.84-22.56.76-32.75C136.43-7.73,301.73-1.71,319.9,4.62c38.04,13.25,45.17,43.34,52.73,75.19l1.11,4.69c5.07,21.15,26.48,157.46,32.38,199.01.43,3.04-1.68,5.86-4.73,6.29-3.08.42-5.86-1.69-6.29-4.73-6.44-45.39-27.54-178.6-32.19-197.98l-1.12-4.71c-7.42-31.29-13.29-56-45.56-67.24-19.28-6.72-173.37-7.68-183.19,20.17-2.72,7.71-1.45,17.85-.21,27.65.44,3.49.87,6.89,1.11,10.11,1.71,22.43,13.61,92.25,23.18,148.34,6.12,35.87,11.39,66.84,13.57,82.4.06.23,12.8,59.45,42.18,73.8,17.28,8.44,37.2,9.85,56.46,11.22,57.05,4.06,296.41,7.88,351.18.13,6.74-.95,14.29-2.35,18.52-6.93,4.46-4.81,5.06-12.84,5.05-20.79-.02-11.83-.85-24.07-6.77-33.45-12.26-19.43-40.48-20.76-66.41-19.48-12.98.64-76.46,1.25-143.67,1.9-64.14.62-130.47,1.26-143.23,1.89-14.43.72-29.37,1.44-42.69-11.39-8.45-8.15-11.73-19.76-14.36-29.08-.06-.2-.1-.39-.14-.59l-38.84-231.31c-.51-3.03,1.54-5.9,4.56-6.41,3.08-.51,5.9,1.54,6.41,4.57l38.79,231.01c2.37,8.38,5.09,17.82,11.3,23.81,9.19,8.86,19.14,9.04,34.42,8.29,12.98-.64,76.46-1.25,143.67-1.9,64.14-.62,130.47-1.26,143.23-1.89,27.45-1.34,60.95.23,76.37,24.65,7.42,11.76,8.47,25.87,8.48,39.37.01,10.23-.95,20.74-8.02,28.37-6.71,7.25-16.49,9.16-25.14,10.39-23.49,3.32-80.47,4.55-142.62,4.55Z"/>
      <path class="cls-2" d="m273.29,108.72c-2.67,0-5.03-1.92-5.48-4.64l-3.08-18.34c-.51-3.03,1.54-5.9,4.56-6.41,3.08-.52,5.9,1.54,6.41,4.57l3.08,18.34c.51,3.03-1.54,5.9-4.56,6.41-.32.05-.63.08-.93.08Z"/>
      <path class="cls-2" d="m323.38,108.72c-2.67,0-5.03-1.92-5.48-4.64l-3.08-18.34c-.51-3.03,1.54-5.9,4.56-6.41,3.06-.52,5.9,1.54,6.41,4.57l3.08,18.34c.51,3.03-1.54,5.9-4.56,6.41-.32.05-.63.08-.93.08Z"/>
      <path class="cls-2" d="m286.82,202.37c-2.67,0-5.03-1.92-5.48-4.64l-3.08-18.34c-.51-3.03,1.54-5.9,4.56-6.41,3.08-.51,5.9,1.54,6.41,4.57l3.08,18.34c.51,3.03-1.54,5.9-4.56,6.41-.32.05-.62.08-.93.08Z"/>
      <path class="cls-2" d="m336.91,202.37c-2.67,0-5.03-1.92-5.48-4.64l-3.08-18.34c-.51-3.03,1.54-5.9,4.57-6.41,3.03-.51,5.9,1.54,6.41,4.57l3.08,18.34c.51,3.03-1.54,5.9-4.57,6.41-.31.05-.62.08-.92.08Z"/>
      <path class="cls-2" d="m376.83,403.56c-2.95,0-5.41-2.32-5.55-5.3-.15-3.07,2.22-5.68,5.29-5.83,5.73-.27,14.79-.41,24.38-.56,12.89-.2,27.51-.42,31.76-1.01,6.75-.95,14.3-2.34,18.54-6.89,4.44-4.77,5.05-12.74,5.04-20.64-.02-11.76-.84-23.92-6.76-33.23-12.26-19.32-40.43-20.63-66.42-19.37-3.1.06-5.68-2.22-5.83-5.29-.15-3.07,2.22-5.68,5.29-5.83,27.47-1.33,60.95.24,76.36,24.52,7.43,11.71,8.47,25.75,8.49,39.18.01,10.18-.95,20.65-8.03,28.24-6.71,7.21-16.49,9.11-25.13,10.33-4.94.7-18.64.9-33.14,1.12-9.49.14-18.46.28-24.01.55-.09,0-.18,0-.27,0Z"/>
      <path class="cls-2" d="m642.44,322.42c-75.5,0-136.7,1.37-136.7,3.07s61.2,3.07,136.7,3.07v-6.14Z"/>
      <path class="cls-2" d="m649.66,343.69c-75.5,0-136.7,1.37-136.7,3.07s61.2,3.07,136.7,3.07v-6.14Z"/>
      <path class="cls-2" d="m649.66,364.95c-75.5,0-136.7,1.37-136.7,3.07s61.2,3.07,136.7,3.07v-6.14Z"/>
      <path class="cls-2" d="m608.63,310.18c-.56,0-1.12-.09-1.68-.26-11.19-3.56-19.93-13.29-22.27-24.8-2.23-11,1.34-21.79,5.13-30.88l1.81-4.27c3.09-7.19,6-13.98,6.65-21.05.63-6.81-1.65-15.61-8.14-18.86-2.2-1.1-4.86-1.6-8.19-2.02-7.84-.98-15.7-.58-24.02-.15-4.32.22-8.65.44-12.99.47l-14.62.13c-8.49.08-17.01.15-25.47.15-39.12-.05-78.24-.11-117.36-.19-3.07,0-5.56-2.5-5.55-5.58,0-3.07,2.49-5.55,5.56-5.55h.01c39.11.07,78.23.14,117.35.19,8.43-.03,16.89-.07,25.35-.15l14.67-.13c4.17-.03,8.33-.24,12.48-.45,8.44-.43,17.17-.87,25.96.22,3.87.48,7.98,1.19,11.8,3.11,11.22,5.62,15.24,19.03,14.24,29.84-.81,8.82-4.22,16.75-7.51,24.41l-1.77,4.15c-3.14,7.55-6.13,16.34-4.49,24.4,1.52,7.5,7.44,14.09,14.73,16.41,2.93.93,4.55,4.06,3.62,6.99-.76,2.37-2.95,3.88-5.3,3.88Z"/>
      <path class="cls-2" d="m575.81,168.36h-125.71c-1.65,0-3.22-.74-4.28-2.01-1.05-1.27-1.49-2.95-1.19-4.58l22.26-119.27c.49-2.63,2.79-4.54,5.47-4.54h81.2c2.68,0,4.98,1.91,5.47,4.54l22.26,119.27c.3,1.63-.14,3.3-1.19,4.58-1.06,1.27-2.63,2.01-4.28,2.01Zm-119.01-11.13h112.31l-20.18-108.15h-71.95l-20.18,108.15Z"/>
      <g>
        <path class="cls-2" d="m505.74,103.16c0,1.05,23.54,1.98,59.42,2.53l-.94-5.05c-35.34.55-58.48,1.47-58.48,2.52Z"/>
        <path class="cls-2" d="m505.74,76.86c0,1,21.4,1.89,54.5,2.45l-.91-4.89c-32.57.56-53.58,1.44-53.58,2.44Z"/>
        <path class="cls-2" d="m570.08,132.06l-.97-5.19c-38.09.55-63.37,1.5-63.37,2.59s25.71,2.06,64.34,2.6Z"/>
      </g>
      <path class="cls-2" d="m507.39,206.52v-47.09c0-1.21,2.49-2.2,5.56-2.2s5.56.98,5.56,2.2v47.09"/>
      <path class="cls-2" d="m211.43,512.14c-.53,0-1.08-.08-1.62-.24-2.94-.89-4.6-4-3.71-6.94l33.76-111.19c.89-2.93,3.96-4.6,6.94-3.71,2.94.89,4.6,4,3.71,6.94l-33.76,111.19c-.73,2.4-2.93,3.95-5.33,3.95Z"/>
      <path class="cls-2" d="m431.54,512.14c-2.4,0-4.61-1.56-5.33-3.97l-32-106.84c-.88-2.95.79-6.05,3.73-6.93,2.95-.89,6.05.79,6.93,3.73l32,106.84c.88,2.95-.79,6.05-3.73,6.93-.53.16-1.07.24-1.6.24Z"/>
      <path class="cls-2" d="m395.68,512.14c-.55,0-1.12-.08-1.68-.26-2.93-.93-4.55-4.05-3.62-6.98l33.77-106.84c.92-2.93,4.04-4.55,6.98-3.63,2.93.93,4.55,4.05,3.62,6.98l-33.77,106.84c-.75,2.37-2.94,3.89-5.3,3.89Z"/>
      <path class="cls-2" d="m615.79,512.14c-2.4,0-4.61-1.56-5.33-3.97l-32-106.84c-.88-2.95.79-6.05,3.73-6.93,2.95-.89,6.05.79,6.93,3.73l32,106.84c.88,2.95-.79,6.05-3.73,6.93-.53.16-1.07.24-1.6.24Z"/>
      <path class="cls-2" d="m125.24,428.52c-16.96,0-33.6-7.55-45.76-20.77-12.3-13.39-26.02-38.98-21.57-84.89,4.28-44.25,32.78-91.52,57.44-116.73,1.09-1.11,2.64-1.73,4.15-1.67,1.55.05,3.02.75,4.04,1.92l16.24,18.8c2.01,2.33,1.75,5.84-.58,7.85-2.31,2-5.83,1.76-7.85-.57l-12.2-14.13c-22.28,24.67-46.38,66.48-50.17,105.59-4.05,41.82,7.93,64.57,18.69,76.28,10.05,10.94,23.71,17.17,37.56,17.17.18,0,.37,0,.56,0,20.2-.24,38.5-24,45.05-40.79,1.12-2.87,4.35-4.27,7.21-3.16,2.86,1.12,4.28,4.34,3.16,7.21-7.43,19.07-28.29,47.55-55.29,47.88-.23,0-.46,0-.69,0Z"/>
      <path class="cls-2" d="m126.75,461.38s-.09,0-.14,0c-3.08-.08-5.5-2.63-5.43-5.7.56-22.46.2-45.26-1.09-67.78-.17-3.07,2.17-5.69,5.24-5.87,3.06-.15,5.69,2.17,5.87,5.24,1.3,22.81,1.67,45.92,1.11,68.68-.08,3.02-2.55,5.43-5.56,5.43Z"/>
      <path class="cls-2" d="m168.93,512.13h-74.53c-3.08,0-5.56-2.49-5.56-5.56s2.49-5.56,5.56-5.56h70.5l13.03-39.63h-100.22c-3.08,0-5.56-2.49-5.56-5.56s2.49-5.56,5.56-5.56h107.91c1.78,0,3.46.86,4.51,2.3,1.04,1.45,1.33,3.31.78,5l-16.69,50.76c-.75,2.28-2.89,3.83-5.29,3.83Z"/>
      <g>
        <path class="cls-2" d="m181.2,469.27c-45.65.41-77.12,1.29-77.12,2.3s30.79,1.87,75.61,2.29l1.51-4.58Z"/>
        <path class="cls-2" d="m175.33,487.11c-38.46.45-64.04,1.25-64.04,2.16s24.95,1.69,62.62,2.15l1.42-4.31Z"/>
      </g>
    </g>
    <path class="cls-2" d="m710.19,552.58H2.09c-1.15,0-2.09-.93-2.09-2.09s.93-2.09,2.09-2.09h708.1c1.15,0,2.09.93,2.09,2.09s-.93,2.09-2.09,2.09Z"/>
    <path class="cls-2" d="m710.19,685.47H2.09c-1.15,0-2.09-.93-2.09-2.09s.93-2.09,2.09-2.09h708.1c1.15,0,2.09.93,2.09,2.09s-.93,2.09-2.09,2.09Z"/>
    <text class="cls-3" transform="translate(197.49 644.83)"><tspan x="0" y="0" xml:space="preserve"> تاـشورفم</tspan></text>
  </g>
  <text class="cls-1" transform="translate(26.64 743.96)"><tspan x="0" y="0">FURNITURE </tspan><tspan x="472.26" y="0">2030</tspan></text>
</svg>